<?xml version="1.0" encoding="UTF-8"?>
<svg id="Lager_1" data-name="Lager 1" xmlns="http://www.w3.org/2000/svg" viewBox="0 0 99.04 99.04">
  <defs>
    <style>
      .cls-1, .cls-2 {
        fill: #fff;
        stroke-width: 0px;
      }

      .cls-2 {
        fill-rule: evenodd;
      }
    </style>
  </defs>
  <path class="cls-1" d="m49.52,0c13.68,0,26.05,5.54,35.01,14.5,8.97,8.97,14.5,21.33,14.5,35.01s-5.54,26.05-14.5,35.01c-8.97,8.97-21.33,14.5-35.01,14.5s-26.05-5.54-35.01-14.5C5.54,75.56,0,63.2,0,49.52S5.54,23.47,14.5,14.5C23.47,5.54,35.84,0,49.52,0h0Zm32.3,17.25c-8.28-8.25-19.69-13.38-32.3-13.38s-24.02,5.13-32.27,13.38C8.99,25.5,3.87,36.91,3.87,49.52s5.13,24.02,13.38,32.3c8.25,8.25,19.66,13.35,32.27,13.35s24.02-5.1,32.3-13.35c8.25-8.28,13.35-19.69,13.35-32.3s-5.1-24.02-13.35-32.27h0Z"/>
  <path class="cls-2" d="m53.3,39.4v-4.06c0-1.95,1.29-2.41,2.22-2.41h5.68v-8.66h-7.81c-8.69,0-10.64,6.42-10.64,10.58v4.55h-5.05v10.12h5.1v25.28h10.12v-25.28h7.48l.33-3.98.6-6.14h-8.03Z"/>
</svg>