<?xml version="1.0" encoding="UTF-8"?>
<svg id="Lager_1" data-name="Lager 1" xmlns="http://www.w3.org/2000/svg" viewBox="0 0 99.04 99.04">
  <defs>
    <style>
      .cls-1, .cls-2 {
        fill: #fff;
        stroke-width: 0px;
      }

      .cls-2 {
        fill-rule: evenodd;
      }
    </style>
  </defs>
  <path class="cls-1" d="m49.52,0c13.68,0,26.05,5.54,35.01,14.5,8.97,8.97,14.5,21.33,14.5,35.01s-5.54,26.05-14.5,35.01c-8.97,8.97-21.33,14.51-35.01,14.51s-26.05-5.54-35.01-14.51C5.54,75.57,0,63.2,0,49.52S5.54,23.47,14.51,14.5C23.47,5.54,35.84,0,49.52,0h0Zm32.27,17.25c-8.25-8.28-19.66-13.38-32.27-13.38s-24.02,5.1-32.27,13.38C8.97,25.5,3.87,36.91,3.87,49.52s5.1,24.02,13.38,32.27c8.25,8.28,19.66,13.38,32.27,13.38s24.02-5.1,32.27-13.38c8.28-8.25,13.38-19.66,13.38-32.27s-5.1-24.02-13.38-32.27h0Z"/>
  <path class="cls-2" d="m27.17,49.98v21.88h10.42v-29.8h-10.42v7.92Zm44.45,1.23c-.69-5.65-3.26-9.16-10.89-9.16-4.47,0-7.49,1.65-8.75,4.03h-.14v-4.03h-8.31v29.8h8.69v-14.78c0-3.89.77-7.65,5.54-7.65s5.15,4.44,5.15,7.92v14.5h8.94v-16.37c0-1.54-.08-2.96-.25-4.28h0Zm-39.24-24.05c-2.88,0-5.21,2.33-5.21,5.21s2.33,5.21,5.21,5.21,5.21-2.33,5.21-5.21-2.33-5.21-5.21-5.21h0Z"/>
</svg>