<?xml version="1.0" encoding="UTF-8"?>
<svg id="Lager_1" data-name="Lager 1" xmlns="http://www.w3.org/2000/svg" viewBox="0 0 99.04 99.06">
  <defs>
    <style>
      .cls-1 {
        fill: #5c86b1;
      }

      .cls-1, .cls-2, .cls-3 {
        stroke-width: 0px;
      }

      .cls-1, .cls-3 {
        fill-rule: evenodd;
      }

      .cls-2, .cls-3 {
        fill: #fff;
      }
    </style>
  </defs>
  <path class="cls-2" d="m49.52,0c13.68,0,26.05,5.57,35.01,14.5,8.96,8.97,14.5,21.36,14.5,35.04s-5.54,26.05-14.5,35.01c-8.97,8.94-21.33,14.5-35.01,14.5s-26.05-5.57-35.01-14.5C5.54,75.59,0,63.2,0,49.55S5.54,23.47,14.5,14.5C23.47,5.57,35.83,0,49.52,0h0Zm32.27,17.25c-8.25-8.25-19.66-13.35-32.27-13.35s-24.02,5.1-32.27,13.35C8.97,25.5,3.87,36.93,3.87,49.55s5.1,24.02,13.38,32.27c8.25,8.25,19.66,13.38,32.27,13.38s24.02-5.13,32.27-13.38c8.28-8.25,13.38-19.69,13.38-32.27s-5.1-24.05-13.38-32.3h0Z"/>
  <path class="cls-3" d="m74.3,38.99s-.52-3.65-2.03-5.24c-1.92-2.08-4.08-2.11-5.04-2.25-7.07-.52-17.68-.52-17.68-.52h-.06s-10.58,0-17.66.52c-1.01.14-3.15.17-5.07,2.25-1.51,1.59-2.03,5.24-2.03,5.24,0,0-.52,4.28-.52,8.5v4.03c0,4.28.52,8.5.52,8.5,0,0,.52,3.65,2.03,5.26,1.92,2.11,4.44,2.03,5.59,2.25,4.03.41,17.19.55,17.19.55,0,0,10.61-.05,17.68-.55.96-.14,3.13-.14,5.04-2.25,1.51-1.62,2.03-5.26,2.03-5.26,0,0,.49-4.22.49-8.5v-4.03c0-4.22-.49-8.5-.49-8.5h0Zm-16.34,9.98l-13.68,7.37v-14.81l6.2,3.37,7.49,4.06Z"/>
  <polygon class="cls-1" points="57.96 48.97 44.28 56.34 44.28 44.99 44.28 41.54 50.48 44.91 57.96 48.97"/>
</svg>